<?xml version="1.0" encoding="utf-8"?>
<!-- Generator: Adobe Illustrator 14.0.0, SVG Export Plug-In . SVG Version: 6.00 Build 43363)  -->
<!DOCTYPE svg PUBLIC "-//W3C//DTD SVG 1.1//EN" "http://www.w3.org/Graphics/SVG/1.1/DTD/svg11.dtd">
<svg version="1.1" id="Calque_1" xmlns="http://www.w3.org/2000/svg" xmlns:xlink="http://www.w3.org/1999/xlink" x="0px" y="0px"
	 width="94.448px" height="44.484px" viewBox="0 0 94.448 44.484" enable-background="new 0 0 94.448 44.484" xml:space="preserve">
<path fill="#231F20" d="M5.249,34.258l1.35,0.579c0,0,2.122,9.642,9.256,9.642s12.63-4.628,13.209-9.353h37.218
	c0,0,2.893,9.642,10.606,9.353s11.86-5.495,11.763-9.642c0,0,6.075-2.7,5.785-8.292s0-9.159-10.896-10.316
	s-15.523-3.085-21.116-7.231S50.952,0.511,44.299,0.318s-23.815-1.35-27.479,2.41S4.382,13.142,4.189,20.084
	c0,0-4.146-0.386-4.146,3.471S-0.826,32.522,5.249,34.258z M86.837,19.85c3.208,0.581,6.672,2.358,5.273,6.176
	c-2.154,1.111-4.834-1.575-6.206-2.936c-0.628-0.623-2.115-1.621-2.26-2.541C83.416,19.102,85.932,19.686,86.837,19.85z
	 M72.742,33.775c0-2.769,2.245-5.014,5.014-5.014c2.77,0,5.014,2.245,5.014,5.014c0,2.77-2.245,5.014-5.014,5.014
	C74.987,38.79,72.742,36.545,72.742,33.775z M56.641,13.817H33.403V5.911h12.438L56.641,13.817z M32.543,18.363
	c1.023-0.459,2.237-0.323,3.324-0.207c1.246,0.133,1.851,0.838,0.26,1.229c-0.962,0.236-2.593,0.333-3.573,0.099
	C31.381,19.203,31.737,18.724,32.543,18.363z M15.18,13.817l7.514-7.906h5.213v7.906H15.18z M12.667,33.775
	c0-2.769,2.245-5.014,5.014-5.014c2.77,0,5.014,2.245,5.014,5.014c0,2.77-2.245,5.014-5.014,5.014
	C14.911,38.79,12.667,36.545,12.667,33.775z"/>
</svg>
