<?xml version="1.0" encoding="utf-8"?>
<!-- Generator: Adobe Illustrator 14.0.0, SVG Export Plug-In . SVG Version: 6.00 Build 43363)  -->
<!DOCTYPE svg PUBLIC "-//W3C//DTD SVG 1.1//EN" "http://www.w3.org/Graphics/SVG/1.1/DTD/svg11.dtd">
<svg version="1.1" id="Calque_1" xmlns="http://www.w3.org/2000/svg" xmlns:xlink="http://www.w3.org/1999/xlink" x="0px" y="0px"
	 width="595.28px" height="841.89px" viewBox="0 0 595.28 841.89" enable-background="new 0 0 595.28 841.89" xml:space="preserve">
<path fill="#231F20" d="M250.085,184.17c0-3.857-4.146-3.471-4.146-3.471c-0.193-6.942-8.967-13.595-12.631-17.355
	s-20.826-2.603-27.479-2.41s-12.535,4.532-18.127,8.678s-10.221,6.074-21.116,7.231s-10.606,4.724-10.896,10.316
	s5.785,8.292,5.785,8.292c-0.097,4.146,4.05,9.353,11.763,9.642s10.606-9.353,10.606-9.353h37.218
	c0.579,4.725,6.074,9.353,13.209,9.353s9.256-9.642,9.256-9.642l1.35-0.579C250.953,193.138,250.085,188.027,250.085,184.17z
	 M166.483,181.164c-0.146,0.92-1.632,1.918-2.26,2.541c-1.372,1.361-4.052,4.047-6.206,2.936c-1.398-3.818,2.065-5.595,5.273-6.176
	C164.195,180.301,166.712,179.717,166.483,181.164z M172.372,199.405c-2.77,0-5.014-2.245-5.014-5.014
	c0-2.769,2.245-5.014,5.014-5.014c2.769,0,5.014,2.245,5.014,5.014C177.385,197.16,175.141,199.405,172.372,199.405z
	 M204.286,166.526h12.438v7.906h-23.237L204.286,166.526z M217.573,180.099c-0.98,0.234-2.61,0.138-3.573-0.099
	c-1.591-0.391-0.986-1.096,0.26-1.229c1.087-0.116,2.301-0.252,3.324,0.207C218.391,179.339,218.747,179.818,217.573,180.099z
	 M222.22,174.432v-7.906h5.213l7.514,7.906H222.22z M232.447,199.405c-2.77,0-5.014-2.245-5.014-5.014
	c0-2.769,2.245-5.014,5.014-5.014c2.769,0,5.014,2.245,5.014,5.014C237.461,197.16,235.216,199.405,232.447,199.405z"/>
</svg>
