<?xml version="1.0" encoding="utf-8"?>
<!-- Generator: Adobe Illustrator 14.0.0, SVG Export Plug-In . SVG Version: 6.00 Build 43363)  -->
<!DOCTYPE svg PUBLIC "-//W3C//DTD SVG 1.1//EN" "http://www.w3.org/Graphics/SVG/1.1/DTD/svg11.dtd">
<svg version="1.1" id="Calque_1" xmlns="http://www.w3.org/2000/svg" xmlns:xlink="http://www.w3.org/1999/xlink" x="0px" y="0px"
	 width="297.64px" height="419.53px" viewBox="0 0 297.64 419.53" enable-background="new 0 0 297.64 419.53" xml:space="preserve">
<path fill-rule="evenodd" clip-rule="evenodd" d="M148.819,185.143c-27.447-21.771-24.244-83.522,3.308-102.503
	C182.928,96.484,184.881,175.767,148.819,185.143z"/>
<path fill-rule="evenodd" clip-rule="evenodd" d="M231.483,102.479c-4.511,27.452-16.087,47.841-46.292,49.598
	C185.453,120.376,199.606,102.563,231.483,102.479z"/>
<path fill-rule="evenodd" clip-rule="evenodd" d="M76.076,112.399c29.969,0.893,44.809,16.913,42.985,49.598
	C94.317,155.881,74.442,144.896,76.076,112.399z"/>
<path fill-rule="evenodd" clip-rule="evenodd" d="M264.549,155.384c-11.977,32.906-52.638,62.144-95.89,42.985
	C176.615,162.125,221.024,134.951,264.549,155.384z"/>
<path fill-rule="evenodd" clip-rule="evenodd" d="M115.754,228.128c-9.299,19.868-39.606,29.126-62.824,16.532
	C57.25,217.392,95.557,213.171,115.754,228.128z"/>
<path fill-rule="evenodd" clip-rule="evenodd" d="M241.403,234.741c-13.479,18.725-54.681,9.309-62.825-6.613
	c-8.054,12.887-17.462,24.422-29.759,33.065c0.14,19.7,1.44,38.242,6.613,52.904c-2.463,7.456-18.547,1.292-26.452,3.308
	c-7.621-41.478,5.44-83.232-16.532-109.116c-50.593,3.196-73.958-20.83-79.357-62.825c68.762-9.245,75.272,43.762,99.197,79.357
	c10.327-7.308,10.726-24.542,16.532-36.372c7.304,12.935-4.333,35.254,0,56.21C163.719,233.023,217.592,191.731,241.403,234.741z"/>
</svg>
