<?xml version="1.0" encoding="utf-8"?>
<!-- Generator: Adobe Illustrator 14.0.0, SVG Export Plug-In . SVG Version: 6.00 Build 43363)  -->
<!DOCTYPE svg PUBLIC "-//W3C//DTD SVG 1.1//EN" "http://www.w3.org/Graphics/SVG/1.1/DTD/svg11.dtd">
<svg version="1.1" xmlns="http://www.w3.org/2000/svg" xmlns:xlink="http://www.w3.org/1999/xlink" x="0px" y="0px"
	 width="262.048px" height="291.562px" viewBox="0 0 262.048 291.562" enable-background="new 0 0 262.048 291.562"
	 xml:space="preserve">
<g id="Calque_1">
</g>
<g id="Calque_2">
</g>
<g id="Calque_3">
	<g>
		<path fill="#231F20" d="M262.031,247.297c-0.652-23.745-20.504-42.53-44.248-41.876c-2.706,0.074-5.347,0.4-7.903,0.951
			l3.341,6.943c1.557-0.254,3.147-0.418,4.768-0.463c19.646-0.541,36.07,15.002,36.612,34.649
			c0.54,19.646-15.003,36.07-34.649,36.611s-36.07-15.002-36.612-34.648c-0.308-11.18,4.596-21.312,12.497-28.071l-3.556-6.705
			c-10.293,8.15-16.762,20.878-16.373,34.981c0.655,23.744,20.504,42.529,44.249,41.875
			C243.899,290.893,262.686,271.041,262.031,247.297z"/>
		<path fill="#231F20" d="M44.061,283.709c-19.646,0.541-36.07-15.002-36.612-34.65c-0.541-19.646,15.003-36.069,34.649-36.61
			c8.982-0.248,17.285,2.875,23.711,8.207l5.91-4.727c-7.913-7.053-18.419-11.227-29.826-10.914
			c-23.745,0.656-42.53,20.504-41.876,44.249c0.654,23.746,20.504,42.531,44.249,41.877c21.046-0.58,38.192-16.24,41.363-36.324
			c-2.435,0.066-5.332,0.146-7.597,0.207C74.862,270.979,60.99,283.242,44.061,283.709z"/>
		<path fill="#231F20" d="M164.403,250.99c-4.918-1.305-10.899-1.04-16.585-0.762c0.986-18.664-0.366-36.262-2.114-49.829
			l42.246-19.709l6.978,24.738c0.011,0.039,0.025,0.076,0.037,0.113c0.015,0.047,0.028,0.092,0.044,0.137
			c0.031,0.084,0.065,0.168,0.103,0.25c0.007,0.018,0.014,0.037,0.022,0.057l0.016,0.035c0.003,0.004,0.004,0.008,0.006,0.012
			l20.442,44.017c0.646,1.389,2.037,2.189,3.476,2.15c0.491-0.014,0.987-0.125,1.462-0.346c1.862-0.865,2.671-3.074,1.806-4.938
			l-20.338-43.79l-12.041-42.695c-0.058-0.201-0.134-0.391-0.22-0.574l2.429-0.904l0.776,1.426c0.691,1.27,2.018,1.977,3.37,1.939
			c0.567-0.016,1.139-0.162,1.672-0.451c1.804-0.982,2.469-3.24,1.487-5.043l-25.643-47.055c0.025-0.11,0.046-0.223,0.062-0.337
			c0.268-2.035-1.166-3.903-3.202-4.171l-17.794-2.341c0.047-0.24,0.08-0.501,0.092-0.817c0.09-2.384-0.82-2.772-3.01-2.349
			c-1.58,0.305-1.25,0.191-2.1-1.018c-0.812,0.065-1.5,0.046-2.271,0.253c-1.008,0.272-1.32,1.007-2.123,1.412
			c-2.232,1.128-5.424-0.649-7.584-1.103c-3.819-0.801-7.971-0.925-11.948-0.93c-0.871-0.001-1.733,0.004-2.582,0.009
			c-2.105,0.012-5.927-0.478-9.648-0.479c-2.379-7.849-6.982-15.312-10.998-22.318c-0.741-1.292-1.399-2.631-2.044-3.978
			c10.371,1.059,22.602,0.427,31.159-2.584c2.892-1.018,5.125-2.197,6.266-3.441c0.617-0.549,1.172-1.17,1.859-1.763
			c1.705-1.47,3.376-2.978,5.079-4.451c1.392-1.205,2.668-2.273,3.937-3.586c1.489-1.542,2.683-3.083,3.804-4.951
			c1.341-2.234,2.88-4.368,4.672-6.258c3.245-0.062,6.619-1.38,7.938-3.563c0.481-0.795,1.72-2.4,1.172-3.382
			c-0.494-0.885-2.769-0.727-3.469-0.369c0.44-0.917,1.603-2.273,1.3-3.198c-0.497-1.524-2.646-0.854-3.745-1.041
			c1.604-2.193-0.237-3.404-2.465-2.877c-1.916,0.452-2.836,1.996-4.487,2.481c-1.003-1.115-1.817-4.554-4.05-4.162
			c-2.967,0.521,0.772,5.144,1.147,6.377c0.143,0.469,0.164,0.961,0.129,1.465c-0.772,0.445-1.104,1.289-1.562,2.605
			c-0.575,1.653-1.496,3.449-2.563,4.834c-1.635,2.123-3.303,4.124-5.345,6.005c-2.983,2.75-6.761,4.961-10.067,7.232
			c-0.479,0.33-1.218,0.809-2.012,1.385c-7.955-1.871-16.61-1.433-24.575-1.295c-2.177,0.038-8.152-0.584-13.47-0.34
			c-2.71-1.358-6.637-1.981-12.109-0.066c-3.138,0.627-6.42,2.375-8.519,4.698c-0.269-1.501-0.257-3.577-1.301-4.875
			c-1.924,0.637-2.126,3.646-2.792,5.31c-1.043,2.609-1.682,2.851-4.099,4.262C55.503,68.976,50.391,71.469,45.59,75
			c-4.07,2.995-5.932,7.178-7.152,11.939c-1.298,5.065-1.407,10.153-1.312,15.364c0.071,3.933-0.036,8.488,0.442,12.417
			c0.891,7.304,4.578,17.176,12.42,19.682c0.662,0.211,1.752,0.37,2.686,0.23c-0.114,0.899-0.205,1.767-0.281,2.615
			c-0.864,1.519-0.676,4.873-0.668,6.485c0.01,2.174-0.091,4.051,0.573,6.124c1.405,4.385,3.253,9.098,7.473,11.536
			c4.387,2.535,9.115,4.366,13.996,5.697c4.655,1.27,8.419,4.402,13.062,6.012c0.185,0.064,0.37,0.133,0.554,0.197l3.765,11.511
			c0.001,0.004,0.003,0.006,0.003,0.008c0.003,0.008,0.005,0.016,0.007,0.025l6.717,19.932l-56.942,40.269
			c-0.021,0.016-0.041,0.033-0.062,0.049c-0.055,0.041-0.108,0.082-0.161,0.125c-0.046,0.039-0.091,0.078-0.135,0.119
			c-0.042,0.037-0.083,0.076-0.123,0.117c-0.048,0.047-0.096,0.098-0.142,0.148c-0.031,0.035-0.062,0.072-0.093,0.109
			c-0.047,0.057-0.093,0.113-0.136,0.172c-0.027,0.037-0.053,0.076-0.078,0.113c-0.041,0.061-0.081,0.121-0.118,0.186
			c-0.026,0.043-0.05,0.086-0.073,0.131c-0.032,0.059-0.063,0.117-0.092,0.178c-0.025,0.053-0.048,0.107-0.07,0.162
			c-0.022,0.053-0.045,0.107-0.064,0.162c-0.022,0.062-0.042,0.123-0.061,0.186c-0.016,0.053-0.031,0.102-0.045,0.156
			c-0.017,0.062-0.029,0.129-0.043,0.193c-0.011,0.055-0.021,0.107-0.029,0.162c-0.01,0.061-0.017,0.121-0.022,0.184
			c-0.007,0.064-0.013,0.127-0.016,0.191c-0.002,0.053-0.004,0.105-0.005,0.16c0,0.074,0.001,0.146,0.005,0.221
			c0.002,0.025,0,0.047,0.002,0.072c0.001,0.023,0.006,0.047,0.008,0.07c0.007,0.074,0.016,0.148,0.026,0.221
			c0.008,0.049,0.017,0.1,0.025,0.148c0.013,0.064,0.027,0.131,0.043,0.197c0.015,0.055,0.029,0.109,0.046,0.164
			c0.017,0.059,0.035,0.115,0.055,0.17c0.021,0.062,0.045,0.123,0.07,0.184c0.02,0.049,0.04,0.096,0.062,0.143
			c0.032,0.066,0.065,0.133,0.101,0.199c0.021,0.039,0.042,0.078,0.064,0.117c0.042,0.07,0.086,0.139,0.131,0.207
			c0.015,0.021,0.027,0.043,0.043,0.064c0.007,0.012,0.016,0.02,0.023,0.029c0.086,0.119,0.176,0.232,0.273,0.34
			c0.006,0.006,0.012,0.012,0.017,0.016c0.089,0.096,0.183,0.186,0.28,0.27c0.037,0.033,0.076,0.064,0.114,0.094
			c0.071,0.059,0.146,0.113,0.222,0.166c0.039,0.025,0.078,0.055,0.118,0.08c0.111,0.07,0.225,0.137,0.343,0.195
			c0.003,0,0.006,0.002,0.01,0.004c0.124,0.061,0.253,0.113,0.385,0.16c0.03,0.012,0.062,0.02,0.094,0.029
			c0.102,0.035,0.206,0.064,0.312,0.09c0.035,0.008,0.071,0.016,0.106,0.021c0.106,0.021,0.215,0.039,0.323,0.051
			c0.032,0.004,0.064,0.008,0.097,0.012c0.137,0.01,0.275,0.018,0.416,0.014c0.001,0,0.002,0,0.003,0s0.002,0,0.003,0
			c0.002,0,0.004,0,0.006,0c0.05-0.004,0.1-0.006,0.149-0.01l56.458-3.969c2.018,6.301,7.922,10.865,14.895,10.865
			c4.878,0,9.232-2.234,12.101-5.732l8.831,4.223c0.186,0.658,0.289,1.002,0.289,1.002l1.027-0.373l0.954,0.456
			c0.404,2.374,1.428,3.912,3.946,5.027c-0.418,1.37-0.023,2.918,1.134,3.909c0.701,0.6,1.562,0.895,2.417,0.895
			c1.048,0,2.089-0.441,2.825-1.299l1.742-2.034c4.515-0.051,9.643-1.12,12.409-2.939
			C167.343,258.543,171.71,252.929,164.403,250.99z M103.258,110.385c0.707,0.413,1.506,0.587,2.33,0.641
			c0.985,0.669,2.155,1.059,3.535,1.045c6.943-0.068,13.854-1.726,20.782-2.278c4.676-0.373,9.368-0.494,14.053-0.76
			c0.261-0.015,0.526-0.056,0.791-0.088c0.46,0.309,0.987,0.53,1.574,0.607l20.39,2.683l21.863,40.123l-7.072,2.635
			c-1.924,0.717-2.903,2.858-2.187,4.782c0.552,1.477,1.941,2.389,3.428,2.412c0.018,0.088,0.035,0.176,0.061,0.264l3.083,10.932
			l-42.017,14.744c-0.878-5.138-1.691-9.063-2.214-11.429c0.003-0.03,0.007-0.061,0.009-0.091c0.028-0.536-0.127-1.131-0.433-1.773
			c-0.104-0.441-0.167-0.695-0.167-0.695l-0.185,0.048c-5.461-9.035-38.292-26.576-55.923-35.533
			c3.387-8.837,6.176-21.516,7.839-39.308c0.738,1.08,1.49,2.133,2.248,3.126c1.497,1.963,3.299,3.735,5.155,5.201
			C101.208,108.467,102.16,109.743,103.258,110.385z M53.009,131.151c-3.855-4.87-1.547-11.723-0.108-17.498
			c0.897-3.602,1.476-7.446,2.644-10.945c0.919-2.754,2.581-5.345,3.728-8.01c1.876-4.363,3.973-8.595,5.613-13.011
			c2.404-6.475,2.836-14.277,6.674-20.184c1.494-2.299,3.048-3.099,4.904-3.354c-3.261,8.029-19.168,47.973-23.302,73.167
			C53.11,131.262,53.057,131.211,53.009,131.151z M96.29,176.615c13.304,6.455,23.789,8.705,31.313,8.484
			c-0.162,2.973-0.249,5.921-0.272,8.831l-0.895,0.314l-25.239-2.895l-2.981-8.85c0,0-0.001,0-0.001-0.002L96.29,176.615z
			 M99.279,240.4l-43.2,3.037l44.272-31.31l5.967,17.709C102.66,232.161,100.035,235.959,99.279,240.4z M115.067,227.411
			c-0.126-0.002-0.249-0.008-0.375-0.008c-0.447,0-0.89,0.023-1.328,0.059l-3.486-10.348l9.124-4.258L115.067,227.411z
			 M130.003,246.242c0.215-1.033,0.328-2.104,0.328-3.201c0-5.266-2.604-9.919-6.593-12.753l5.009-9.787
			c1.234,11.129,3.052,20.637,4.548,27.315L130.003,246.242z"/>
		<path fill="#231F20" d="M74.647,44.469c4.51,5.337,11.878,7.079,18.6,6.443c4.398-0.416,17.16-3.362,15.519-9.766
			c-3.332,0.201-6.537,1.173-9.92,0.949c-1.771-0.117-3.574-0.207-5.311-0.601c-2.309-0.525-3.813-3.325-4.588-5.293
			c-0.15-0.38-0.395-1.214-0.257-1.598c0.313-0.871,1.033-0.209,1.636,0.199c1.1,0.743,2.149,1.808,3.487,2.099
			c1.389,0.302,2.837,0.524,4.252,0.799c2.262,0.439,5.399,0.61,7.683,0.191c2.446-0.449,5.286-1.074,6.786-3.253
			c3.001-4.363,2.676-9.212,1.795-14.178c-0.443-2.497-1.491-4.654-2.963-6.49c1.056-0.266,2.08-0.577,3.041-0.961
			c1.51-0.604,2.983-1.291,4.468-1.953c0.726-0.325,1.456-0.644,2.195-0.938c0.615-0.246,1.595-0.387,2.122-0.766
			c0.299-0.215,0.42-0.422,0.415-0.62c-0.024-0.864-2.484-1.529-3.06-1.75c-1.484-0.572-2.955-1.244-4.493-1.658
			c-4.573-1.23-9.191-2.343-13.873-3.081c-5.713-0.901-11.443-1.18-17.147-2.13c-1.705-0.284-3.353,0.039-5.046,0.164
			c-1.479,0.109-2.921,0.343-4.365,0.677c-1.099,0.253-2.125,0.764-2.962,1.523c-2.428,2.204-2.915,5.88-2.654,8.98
			c0.136,1.623,0.491,3.23,1.084,4.749c0.154,0.395,0.258,0.769,0.429,1.08C67.571,25.804,68.792,37.539,74.647,44.469z
			 M96.586,28.078c-0.171,0.269-0.354,0.492-0.603,0.688c-0.312,0.247-0.702,0.538-1.115,0.553c-0.4,0.015-0.792-0.18-1.05-0.48
			c-0.717-0.833,0.047-3.707,0.92-4.192c0.26-0.144,0.547-0.263,0.847-0.282c0.717-0.047,1.136,0.552,1.314,1.175
			C97.145,26.394,97.065,27.326,96.586,28.078z M108.501,27.556c-0.171,0.268-0.354,0.492-0.603,0.688
			c-0.312,0.247-0.702,0.538-1.115,0.553c-0.4,0.015-0.792-0.18-1.05-0.479c-0.717-0.833,0.047-3.707,0.919-4.192
			c0.26-0.145,0.547-0.263,0.847-0.282c0.717-0.047,1.136,0.552,1.314,1.174C109.06,25.872,108.979,26.804,108.501,27.556z"/>
	</g>
</g>
</svg>
