<?xml version="1.0" encoding="utf-8"?>
<!-- Generator: Adobe Illustrator 14.0.0, SVG Export Plug-In . SVG Version: 6.00 Build 43363)  -->
<!DOCTYPE svg PUBLIC "-//W3C//DTD SVG 1.1//EN" "http://www.w3.org/Graphics/SVG/1.1/DTD/svg11.dtd">
<svg version="1.1" id="Calque_1" xmlns="http://www.w3.org/2000/svg" xmlns:xlink="http://www.w3.org/1999/xlink" x="0px" y="0px"
	 width="595.28px" height="841.89px" viewBox="0 0 595.28 841.89" enable-background="new 0 0 595.28 841.89" xml:space="preserve">
<path d="M286.804,97.838c-141.385,0-256,114.615-256,256c0,141.385,114.615,256,256,256s256-114.615,256-256
	C542.804,212.453,428.187,97.838,286.804,97.838z M286.805,577.988c-123.795,0-224.15-100.355-224.15-224.15
	c0-123.793,100.355-224.148,224.15-224.148c123.794,0,224.149,100.355,224.149,224.148
	C510.954,477.632,410.599,577.988,286.805,577.988z"/>
<path d="M286.804,161.76c-106.082,0-192.078,85.997-192.078,192.078c0,106.082,85.996,192.078,192.078,192.078
	s192.078-85.996,192.078-192.078C478.882,247.756,392.886,161.76,286.804,161.76z M360.816,456.08H218.844V239.417h58.537v169.388
	h83.435V456.08z"/>
</svg>
