<?xml version="1.0" encoding="utf-8"?>
<!-- Generator: Adobe Illustrator 14.0.0, SVG Export Plug-In . SVG Version: 6.00 Build 43363)  -->
<!DOCTYPE svg PUBLIC "-//W3C//DTD SVG 1.1//EN" "http://www.w3.org/Graphics/SVG/1.1/DTD/svg11.dtd">
<svg version="1.1" id="Calque_1" xmlns="http://www.w3.org/2000/svg" xmlns:xlink="http://www.w3.org/1999/xlink" x="0px" y="0px"
	 width="297.638px" height="419.527px" viewBox="148.822 211.181 297.638 419.527"
	 enable-background="new 148.822 211.181 297.638 419.527" xml:space="preserve">
<g>
	<path d="M297.64,299.945c-66.827,0-121,54.174-121,121s54.173,121,121,121c66.828,0,121-54.174,121-121
		S364.466,299.945,297.64,299.945z M297.641,526.89c-58.513,0-105.947-47.433-105.947-105.945
		c0-58.511,47.434-105.945,105.947-105.945c58.512,0,105.944,47.434,105.944,105.945C403.585,479.458,356.154,526.89,297.641,526.89
		z"/>
	<path d="M297.64,330.158c-50.14,0-90.787,40.647-90.787,90.787c0,50.141,40.647,90.786,90.787,90.786s90.787-40.646,90.787-90.786
		S347.781,330.158,297.64,330.158z M332.624,469.27h-67.105V366.863h27.667v80.062h39.438V469.27z"/>
</g>
</svg>
