<?xml version="1.0" encoding="utf-8"?>
<!-- Generator: Adobe Illustrator 14.0.0, SVG Export Plug-In . SVG Version: 6.00 Build 43363)  -->
<!DOCTYPE svg PUBLIC "-//W3C//DTD SVG 1.1//EN" "http://www.w3.org/Graphics/SVG/1.1/DTD/svg11.dtd">
<svg version="1.1" id="Calque_1" xmlns="http://www.w3.org/2000/svg" xmlns:xlink="http://www.w3.org/1999/xlink" x="0px" y="0px"
	 width="610.32px" height="645.176px" viewBox="0 0 610.32 645.176" enable-background="new 0 0 610.32 645.176"
	 xml:space="preserve">
<g>
	<path fill="#231F20" d="M40.05,516.102L7.32,597.817h6.29l11.354-28.723H58.03l11.3,28.723h6.4l-32.062-81.715H40.05z
		 M56.137,563.973H27.025l11.411-29.223c1.187-2.895,2.281-6.125,3.284-9.686c1.298,4.082,2.411,7.271,3.34,9.572L56.137,563.973z"
		/>
	<path fill="#231F20" d="M33.982,491.665h-7.904v0.947c1.226,1.744,3.553,4.332,6.986,7.766c3.432,3.432,6.931,6.615,10.493,9.545
		h3.84v-0.891c-2.599-2.818-5.242-5.975-7.933-9.463C36.774,496.083,34.946,493.446,33.982,491.665z"/>
	<path fill="#231F20" d="M141.025,536.141c-4.565,0-8.471,0.855-11.717,2.562c-3.248,1.707-6.022,4.379-8.322,8.016h-0.39
		l0.167-4.73c0.147-2.748,0.223-5.752,0.223-9.02v-21.764h-5.511v86.613h3.45l1.56-9.129h0.501c2.004,3.264,4.731,5.787,8.183,7.568
		s7.329,2.672,11.635,2.672c8.162,0,14.5-2.727,19.009-8.182c4.509-5.457,6.763-13.211,6.763-23.268
		c0-10.244-2.142-18.027-6.429-23.352C155.859,538.803,149.486,536.141,141.025,536.141z M155.72,587.1
		c-3.341,4.619-8.313,6.932-14.919,6.932c-6.79,0-11.792-1.984-15.001-5.957c-3.211-3.969-4.814-10.52-4.814-19.648v-0.945
		c0-9.389,1.539-16.123,4.62-20.207c3.08-4.082,8.183-6.123,15.308-6.123c13.21,0,19.816,8.738,19.816,26.217
		C160.73,575.905,159.06,582.481,155.72,587.1z"/>
	<rect x="183.329" y="537.309" fill="#231F20" width="5.511" height="60.508"/>
	<path fill="#231F20" d="M186.057,515.157c-2.338,0-3.508,1.781-3.508,5.344c0,3.598,1.169,5.398,3.508,5.398
		c1.149,0,2.05-0.48,2.699-1.447c0.649-0.965,0.975-2.281,0.975-3.951c0-1.707-0.325-3.025-0.975-3.953
		C188.107,515.622,187.207,515.157,186.057,515.157z"/>
	<path fill="#231F20" d="M234.095,546.049c3.599,0,8.162,1.078,13.692,3.229l3.952-10.521c-5.196-2.412-11.04-3.617-17.534-3.617
		c-9.574,0-16.894,2.783-21.959,8.35c-5.064,5.566-7.598,13.525-7.598,23.881c0,10.168,2.421,17.971,7.264,23.406
		s11.921,8.154,21.236,8.154c3.785,0,7.004-0.299,9.657-0.891c2.652-0.594,5.148-1.578,7.486-2.951v-11.41
		c-5.195,2.895-10.706,4.342-16.531,4.342c-5.121,0-9.01-1.734-11.662-5.205c-2.654-3.469-3.98-8.656-3.98-15.559
		C218.119,553.118,223.444,546.049,234.095,546.049z"/>
	<path fill="#231F20" d="M288.256,577.749c-0.891,2.914-1.503,5.391-1.837,7.432h-0.444c-0.632-4.379-1.893-9.053-3.785-14.027
		l-12.524-34.9h-14.25l24.714,61.564l-2.281,5.789c-2.562,7.311-6.996,10.967-13.305,10.967c-2.523,0-4.769-0.225-6.734-0.668
		v10.354c2.746,0.631,5.565,0.945,8.461,0.945c11.17,0,19.148-6.4,23.936-19.203l26.329-69.75h-14.139
		C293.859,561.002,289.147,574.836,288.256,577.749z"/>
	<path fill="#231F20" d="M351.657,546.049c3.599,0,8.164,1.078,13.692,3.229l3.952-10.521c-5.195-2.412-11.04-3.617-17.534-3.617
		c-9.573,0-16.894,2.783-21.959,8.35c-5.064,5.566-7.598,13.525-7.598,23.881c0,10.168,2.421,17.971,7.264,23.406
		c4.844,5.436,11.922,8.154,21.236,8.154c3.786,0,7.004-0.299,9.657-0.891c2.653-0.594,5.148-1.578,7.487-2.951v-11.41
		c-5.196,2.895-10.706,4.342-16.532,4.342c-5.121,0-9.009-1.734-11.662-5.205c-2.654-3.469-3.98-8.656-3.98-15.559
		C335.68,553.118,341.006,546.049,351.657,546.049z"/>
	<rect x="382.329" y="511.204" fill="#231F20" width="13.081" height="86.613"/>
	<path fill="#231F20" d="M438.605,535.139c-8.759,0-15.642,2.875-20.651,8.627c-5.01,5.754-7.515,13.658-7.515,23.715
		c0,9.797,2.699,17.486,8.1,23.072c5.397,5.584,12.886,8.377,22.46,8.377c4.193,0,7.922-0.314,11.188-0.947
		c3.266-0.631,6.494-1.707,9.687-3.229v-10.633c-3.6,1.596-6.968,2.738-10.104,3.424c-3.136,0.688-6.521,1.029-10.157,1.029
		c-5.53,0-9.816-1.604-12.858-4.814c-3.043-3.209-4.657-7.801-4.843-13.775h41.023v-7.07c0-8.646-2.356-15.438-7.068-20.373
		C453.152,537.608,446.732,535.139,438.605,535.139z M424.133,560.522c0.481-5.047,1.977-8.887,4.48-11.523
		c2.506-2.635,5.836-3.951,9.992-3.951c4.154,0,7.422,1.309,9.797,3.922c2.374,2.617,3.599,6.469,3.674,11.553H424.133z"/>
	<path fill="#231F20" d="M488.869,590.692c-1.634-2.227-2.449-5.658-2.449-10.299v-38.297h17.758v-4.787h-17.757V522.67h-2.839
		l-2.783,13.693l-8.962,2.504v3.229h8.962v39.076c0,6.123,1.271,10.615,3.812,13.471c2.542,2.859,6.484,4.287,11.829,4.287
		c3.486,0,6.567-0.445,9.239-1.336v-4.453c-2.598,0.594-5.642,0.891-9.129,0.891C493.062,594.032,490.502,592.918,488.869,590.692z"
		/>
	<path fill="#231F20" d="M527.055,590.692c-1.634-2.227-2.448-5.658-2.448-10.299v-38.297h17.757v-4.787h-17.757V522.67h-2.84
		l-2.782,13.693l-8.962,2.504v3.229h8.962v39.076c0,6.123,1.27,10.615,3.812,13.471c2.542,2.859,6.485,4.287,11.829,4.287
		c3.487,0,6.568-0.445,9.24-1.336v-4.453c-2.599,0.594-5.643,0.891-9.129,0.891C531.249,594.032,528.687,592.918,527.055,590.692z"
		/>
	<path fill="#231F20" d="M602.814,563.862c0-8.535-2.061-15.289-6.18-20.264c-4.119-4.973-9.741-7.459-16.866-7.459
		c-8.053,0-14.453,2.904-19.203,8.711c-4.751,5.811-7.125,13.537-7.125,23.186c0,9.762,2.458,17.35,7.376,22.768
		c4.916,5.418,11.771,8.127,20.566,8.127c3.488,0,6.68-0.27,9.575-0.809c2.896-0.537,6.048-1.549,9.463-3.033v-5.01
		c-4.008,1.596-7.32,2.635-9.937,3.117s-5.65,0.723-9.102,0.723c-7.089,0-12.534-2.188-16.337-6.568
		c-3.804-4.377-5.743-10.723-5.817-19.035h43.586V563.862z M559.562,563.417c0.594-7.236,2.653-12.775,6.18-16.615
		c3.524-3.842,8.201-5.762,14.026-5.762c5.381,0,9.594,1.977,12.637,5.928c3.042,3.953,4.563,9.436,4.563,16.449H559.562z"/>
	<path fill="#231F20" d="M503.391,433.057c54.292-1.494,97.246-46.883,95.75-101.174c-1.493-54.293-46.882-97.246-101.175-95.751
		c-6.188,0.17-12.226,0.916-18.071,2.176l7.639,15.873c3.561-0.58,7.196-0.953,10.901-1.056
		c44.923-1.237,82.476,34.303,83.714,79.226c1.236,44.923-34.304,82.476-79.226,83.714c-44.923,1.236-82.476-34.303-83.714-79.227
		c-0.704-25.562,10.509-48.726,28.575-64.184l-8.132-15.332c-23.534,18.635-38.325,47.738-37.437,79.984
		C403.713,391.6,449.099,434.553,503.391,433.057z"/>
	<path fill="#231F20" d="M100.745,415.139c-44.922,1.236-82.476-34.303-83.714-79.227c-1.236-44.921,34.304-82.477,79.226-83.712
		c20.539-0.565,39.523,6.573,54.215,18.765l13.515-10.809c-18.093-16.125-42.116-25.668-68.198-24.951
		c-54.293,1.497-97.246,46.882-95.75,101.176c1.496,54.293,46.882,97.246,101.175,95.75c48.122-1.326,87.329-37.133,94.58-83.057
		c-5.569,0.153-12.194,0.336-17.371,0.477C171.175,386.031,139.456,414.073,100.745,415.139z"/>
	<path fill="#231F20" d="M135.663,126.542c1.167,1.698,3.389,3.856,5.269,4.692c0.873,0.388,1.78,0.681,2.629,0.882
		c3.929,0.934,8.313,0.48,12.309,0.38c7.984-0.2,15.274-2.507,23.028-4.171c3.021-0.649,6.064-1.2,9.119-1.671l20.395,62.352
		c0.002,0.005,0.005,0.01,0.006,0.015c0.006,0.019,0.01,0.038,0.016,0.057l15.357,45.575L93.593,326.728
		c-0.05,0.035-0.094,0.076-0.143,0.112c-0.125,0.093-0.247,0.188-0.367,0.288c-0.105,0.087-0.209,0.176-0.31,0.268
		c-0.096,0.087-0.188,0.178-0.279,0.27c-0.111,0.11-0.22,0.223-0.324,0.339c-0.073,0.081-0.142,0.166-0.212,0.25
		c-0.108,0.13-0.213,0.261-0.312,0.396c-0.062,0.084-0.119,0.171-0.178,0.257c-0.094,0.139-0.186,0.278-0.271,0.422
		c-0.059,0.099-0.112,0.2-0.167,0.301c-0.073,0.135-0.145,0.27-0.21,0.408c-0.057,0.12-0.108,0.243-0.16,0.367
		c-0.051,0.124-0.104,0.248-0.149,0.374c-0.05,0.14-0.094,0.281-0.137,0.424c-0.036,0.118-0.071,0.234-0.102,0.354
		c-0.038,0.146-0.068,0.295-0.098,0.444c-0.025,0.124-0.049,0.248-0.069,0.373c-0.021,0.139-0.037,0.278-0.051,0.419
		c-0.015,0.145-0.028,0.289-0.035,0.434c-0.006,0.122-0.009,0.244-0.01,0.367c-0.001,0.17,0.001,0.338,0.01,0.508
		c0.003,0.055,0,0.108,0.003,0.163c0.004,0.056,0.015,0.108,0.02,0.163c0.015,0.168,0.035,0.336,0.06,0.503
		c0.017,0.113,0.036,0.226,0.057,0.338c0.029,0.151,0.062,0.302,0.1,0.452c0.032,0.127,0.065,0.253,0.103,0.378
		c0.039,0.13,0.081,0.259,0.126,0.387c0.05,0.143,0.104,0.282,0.161,0.421c0.044,0.108,0.091,0.216,0.141,0.322
		c0.072,0.155,0.148,0.307,0.229,0.456c0.048,0.09,0.097,0.179,0.148,0.268c0.095,0.161,0.195,0.318,0.3,0.473
		c0.033,0.05,0.061,0.103,0.096,0.151c0.017,0.023,0.037,0.043,0.054,0.067c0.196,0.271,0.402,0.532,0.627,0.776
		c0.012,0.014,0.025,0.024,0.037,0.037c0.203,0.218,0.418,0.422,0.642,0.616c0.084,0.074,0.172,0.144,0.259,0.214
		c0.164,0.132,0.333,0.258,0.507,0.377c0.09,0.062,0.18,0.127,0.272,0.186c0.253,0.16,0.513,0.311,0.783,0.443
		c0.007,0.004,0.014,0.009,0.021,0.012c0.284,0.14,0.58,0.259,0.88,0.366c0.071,0.025,0.143,0.046,0.214,0.069
		c0.234,0.077,0.473,0.144,0.715,0.2c0.082,0.019,0.163,0.037,0.245,0.054c0.243,0.049,0.49,0.086,0.739,0.114
		c0.074,0.008,0.146,0.02,0.22,0.026c0.314,0.026,0.631,0.04,0.952,0.031c0.002,0,0.003,0,0.005,0c0.003,0,0.005,0,0.008,0
		c0.005,0,0.009-0.001,0.014-0.001c0.113-0.005,0.227-0.011,0.34-0.018l129.092-9.078c4.615,14.41,18.115,24.845,34.057,24.845
		c11.153,0,21.111-5.107,27.669-13.108l38.102,18.218l-2.027,2.366c-3.055,3.565-2.641,8.93,0.925,11.985
		c1.603,1.373,3.569,2.045,5.526,2.045c2.396,0,4.777-1.008,6.46-2.971l18.746-21.883c3.055-3.564,2.641-8.93-0.925-11.984
		c-3.564-3.055-8.931-2.639-11.984,0.924l-5.269,6.149l-42.215-20.185c0.491-2.362,0.752-4.81,0.752-7.317
		c0-12.04-5.956-22.681-15.076-29.162l30.191-58.993l116.632-54.411l15.953,56.563c0.025,0.089,0.058,0.173,0.086,0.261
		c0.032,0.103,0.064,0.206,0.102,0.309c0.069,0.195,0.148,0.385,0.231,0.572c0.019,0.043,0.032,0.088,0.053,0.131l0.036,0.079
		c0.005,0.009,0.009,0.018,0.013,0.026l46.742,100.645c1.475,3.175,4.659,5.009,7.948,4.918c1.123-0.03,2.258-0.285,3.342-0.789
		c4.258-1.979,6.106-7.032,4.128-11.289l-46.502-100.129l-27.533-97.621c-0.13-0.46-0.304-0.895-0.501-1.314l5.552-2.068
		l1.776,3.259c1.58,2.905,4.612,4.52,7.705,4.435c1.298-0.035,2.604-0.369,3.823-1.033c4.123-2.246,5.646-7.407,3.4-11.53
		L397.476,17.42c0.058-0.252,0.104-0.509,0.139-0.771c0.613-4.654-2.665-8.924-7.319-9.536l-53.508-7.041
		c-4.655-0.614-8.923,2.664-9.536,7.318c-0.613,4.654,2.664,8.924,7.318,9.536l46.621,6.135l49.994,91.741l-16.173,6.025
		c-4.399,1.639-6.638,6.533-4.998,10.933c1.26,3.377,4.438,5.461,7.837,5.514c0.041,0.201,0.081,0.403,0.138,0.604l7.05,24.996
		L289.097,210.58l-57.709-6.618l-6.818-20.235c0-0.002-0.001-0.004-0.001-0.006l-19.177-58.629c3.344-0.002,6.575,0.562,9.912,0.738
		c4.001,0.211,8.047,0.344,12.017-0.311c3.422-0.564,5.383-1.477,5.927-5.212c0.35-2.397-0.627-4.421-2.414-6.025
		c-2.652-2.383-6.516-2.778-9.901-3.092c-2.295-0.213-4.641,0.013-6.944-0.007c-5.214-0.043-10.431-0.101-15.646-0.176
		c-7.483-0.106-15.102-0.11-22.547-0.926c-2.346-0.257-4.534-0.72-6.898-0.762c-3.045-0.054-6.068-0.548-9.032-1.227
		c-5.105-1.168-10.094-2.689-15.36-2.949c-3.695-0.183-12.41,0.049-12.759,5.322c-0.146,2.177,0.545,4.955,0.891,7.095
		C133.131,120.652,133.86,123.926,135.663,126.542z M251.238,262.868l20.863-9.733l-8.998,33.28
		c-0.286-0.006-0.569-0.021-0.857-0.021c-1.023,0-2.034,0.053-3.035,0.137L251.238,262.868L251.238,262.868z M229.456,251.467
		l13.644,40.491c-8.364,5.314-14.367,14.002-16.095,24.153l-98.778,6.946L229.456,251.467z"/>
</g>
</svg>
