<?xml version="1.0" encoding="utf-8"?>
<!-- Generator: Adobe Illustrator 14.0.0, SVG Export Plug-In . SVG Version: 6.00 Build 43363)  -->
<!DOCTYPE svg PUBLIC "-//W3C//DTD SVG 1.1//EN" "http://www.w3.org/Graphics/SVG/1.1/DTD/svg11.dtd">
<svg version="1.1" id="Calque_1" xmlns="http://www.w3.org/2000/svg" xmlns:xlink="http://www.w3.org/1999/xlink" x="0px" y="0px"
	 width="610.32px" height="645.177px" viewBox="0 0 610.32 645.177" enable-background="new 0 0 610.32 645.177"
	 xml:space="preserve">
<g>
	<path fill="#231F20" d="M439.653,257.323l8.132,15.332c-18.066,15.458-29.279,38.622-28.575,64.184
		c1.238,44.923,38.791,80.462,83.714,79.225c44.922-1.237,80.462-38.79,79.225-83.713c-1.238-44.923-38.791-80.463-83.713-79.226
		c-3.706,0.103-7.341,0.476-10.902,1.056l-7.638-15.873c5.845-1.26,11.883-2.006,18.071-2.176
		c54.293-1.495,99.681,41.458,101.175,95.751c1.496,54.291-41.458,99.679-95.75,101.174c-54.292,1.496-99.679-41.457-101.175-95.75
		C401.328,305.061,416.119,275.958,439.653,257.323z"/>
	<path fill="#231F20" d="M95.788,235.205c26.082-0.717,50.105,8.826,68.198,24.951l-13.515,10.809
		c-14.691-12.192-33.675-19.33-54.214-18.765c-44.922,1.236-80.462,38.791-79.226,83.713c1.238,44.923,38.792,80.462,83.714,79.226
		c38.711-1.067,70.43-29.108,77.677-65.587c5.176-0.142,11.801-0.324,17.371-0.478c-7.251,45.925-46.458,81.731-94.58,83.058
		c-54.293,1.496-99.679-41.458-101.175-95.75C-1.458,282.087,41.495,236.702,95.788,235.205z"/>
	<g>
		<path fill="#231F20" d="M454.115,242.343c0.689-0.019,1.386-0.121,2.079-0.317c4.519-1.275,7.148-5.971,5.874-10.489
			l-27.716-98.273c-1.276-4.519-5.973-7.149-10.489-5.873c-4.518,1.273-7.148,5.969-5.874,10.487l27.717,98.274
			C446.785,239.976,450.316,242.448,454.115,242.343L454.115,242.343z"/>
	</g>
	<g>
		<path fill="#231F20" d="M500.917,343.092c1.123-0.03,2.258-0.285,3.342-0.789c4.258-1.978,6.106-7.032,4.128-11.289
			l-46.791-100.751c-1.979-4.258-7.034-6.105-11.29-4.128c-4.258,1.978-6.105,7.031-4.128,11.29l46.791,100.75
			C494.443,341.349,497.628,343.183,500.917,343.092L500.917,343.092z"/>
	</g>
	<g>
		<path fill="#231F20" d="M231.204,248.483c0.859-0.023,1.728-0.178,2.583-0.477l204.416-71.736
			c4.43-1.554,6.761-6.405,5.205-10.834c-1.554-4.429-6.403-6.761-10.834-5.207l-204.416,71.736
			c-4.429,1.554-6.76,6.405-5.206,10.834C224.205,246.375,227.608,248.583,231.204,248.483L231.204,248.483z"/>
	</g>
	<g>
		<path fill="#231F20" d="M98.743,342.166c1.62-0.044,3.244-0.551,4.666-1.558l132.47-93.683c3.833-2.711,4.743-8.015,2.032-11.848
			c-2.71-3.833-8.013-4.746-11.847-2.032L93.593,326.728c-3.833,2.711-4.743,8.016-2.032,11.849
			C93.266,340.988,95.997,342.242,98.743,342.166L98.743,342.166z"/>
	</g>
	<g>
		<path fill="#231F20" d="M98.729,342.166c0.122-0.004,0.245-0.01,0.368-0.018l163.745-11.514c4.683-0.329,8.212-4.392,7.883-9.075
			c-0.33-4.682-4.394-8.207-9.075-7.884L97.905,325.189c-4.683,0.329-8.212,4.392-7.883,9.076
			C90.342,338.824,94.203,342.291,98.729,342.166L98.729,342.166z"/>
	</g>
	<g>
		<path fill="#231F20" d="M262.478,330.655c0.824-0.023,1.66-0.168,2.482-0.444c4.449-1.5,6.84-6.321,5.341-10.769L224.544,183.65
			c-1.5-4.449-6.322-6.835-10.769-5.342c-4.449,1.5-6.84,6.321-5.342,10.77l45.757,135.791
			C255.413,328.495,258.842,330.753,262.478,330.655L262.478,330.655z"/>
	</g>
	<g>
		<path fill="#231F20" d="M262.484,330.654c3.654-0.1,6.964-2.57,7.967-6.28l27.823-102.909c1.225-4.531-1.456-9.199-5.987-10.425
			c-4.529-1.222-9.199,1.457-10.424,5.988l-27.823,102.909c-1.226,4.531,1.455,9.198,5.987,10.424
			C260.849,330.583,261.675,330.676,262.484,330.654L262.484,330.654z"/>
	</g>
	<g>
		<path fill="#231F20" d="M290.314,227.744c4.161-0.114,7.711-3.274,8.199-7.529c0.535-4.664-2.812-8.878-7.476-9.413l-65.011-7.455
			c-4.656-0.531-8.878,2.814-9.414,7.478c-0.534,4.663,2.813,8.878,7.477,9.413l65.011,7.454
			C289.51,227.738,289.915,227.754,290.314,227.744L290.314,227.744z"/>
	</g>
	<g>
		<path fill="#231F20" d="M216.719,194.863c0.802-0.022,1.611-0.16,2.413-0.421c4.461-1.459,6.896-6.259,5.436-10.721
			l-20.755-63.453c-1.46-4.463-6.261-6.896-10.721-5.437c-4.461,1.459-6.896,6.26-5.436,10.722l20.755,63.453
			C209.608,192.667,213.056,194.963,216.719,194.863L216.719,194.863z"/>
	</g>
	<g>
		<path fill="#231F20" d="M418.214,137.292c0.91-0.025,1.832-0.197,2.732-0.534l20.299-7.562c4.4-1.639,6.638-6.534,4.999-10.933
			c-1.638-4.398-6.533-6.638-10.932-4.998l-20.299,7.562c-4.4,1.639-6.638,6.533-4.998,10.933
			C411.319,135.258,414.679,137.39,418.214,137.292L418.214,137.292z"/>
	</g>
	<g>
		<path fill="#231F20" d="M448.884,137.576c1.298-0.035,2.604-0.369,3.823-1.033c4.123-2.246,5.646-7.407,3.4-11.53L396.017,14.74
			c-2.246-4.123-7.406-5.646-11.53-3.4c-4.123,2.246-5.646,7.408-3.4,11.53l60.092,110.271
			C442.759,136.046,445.791,137.661,448.884,137.576L448.884,137.576z"/>
	</g>
	<g>
		<path fill="#231F20" d="M389.198,24.042c-0.37,0-0.743-0.024-1.119-0.074l-53.509-7.041c-4.654-0.612-7.931-4.882-7.318-9.536
			c0.613-4.654,4.881-7.932,9.536-7.318l53.508,7.041c4.654,0.612,7.932,4.882,7.319,9.536
			C397.051,20.928,393.399,24.042,389.198,24.042L389.198,24.042z"/>
	</g>
	<circle fill="#231F20" cx="262.246" cy="322.154" r="35.76"/>
	<g>
		<path fill="#231F20" d="M337.415,366.6c-1.229,0-2.478-0.268-3.661-0.833l-75.175-35.944c-4.235-2.025-6.027-7.101-4.002-11.336
			c2.025-4.234,7.101-6.026,11.335-4.002l75.175,35.944c4.235,2.025,6.027,7.101,4.002,11.336
			C343.63,364.817,340.586,366.6,337.415,366.6L337.415,366.6z"/>
	</g>
	<g>
		<path fill="#231F20" d="M332.44,379.42c-1.957,0-3.923-0.672-5.526-2.045c-3.565-3.055-3.979-8.42-0.925-11.985l18.748-21.883
			c3.054-3.563,8.42-3.979,11.985-0.925c3.565,3.055,3.979,8.42,0.925,11.985l-18.747,21.883
			C337.218,378.413,334.836,379.42,332.44,379.42L332.44,379.42z"/>
	</g>
	<path fill="#231F20" d="M275.535,218.587l-54.833-6.582l13.029,21.054C233.731,233.059,263.751,233.727,275.535,218.587z"/>
	<path fill="#231F20" d="M140.931,131.234c0.873,0.388,1.781,0.681,2.629,0.882c3.929,0.934,8.314,0.48,12.309,0.38
		c7.984-0.2,15.274-2.507,23.028-4.171c3.928-0.843,7.891-1.524,11.871-2.075c4.646-0.643,9.339-1.058,14.027-1.159
		c3.557-0.078,6.972,0.553,10.507,0.739c4.001,0.211,8.047,0.344,12.017-0.311c3.422-0.564,5.383-1.477,5.927-5.212
		c0.349-2.397-0.627-4.421-2.414-6.025c-2.653-2.383-6.516-2.778-9.902-3.092c-2.295-0.213-4.64,0.013-6.944-0.007
		c-5.214-0.043-10.431-0.101-15.646-0.176c-7.484-0.106-15.102-0.11-22.547-0.926c-2.346-0.257-4.534-0.72-6.899-0.762
		c-3.045-0.054-6.068-0.548-9.032-1.227c-5.105-1.168-10.094-2.689-15.36-2.949c-3.696-0.183-12.41,0.049-12.759,5.322
		c-0.146,2.177,0.545,4.955,0.891,7.095c0.497,3.092,1.226,6.366,3.029,8.982C136.83,128.24,139.052,130.398,140.931,131.234z"/>
</g>
<g>
	<path d="M58.03,569.094H24.965L13.61,597.817H7.32l32.73-81.715h3.618l32.062,81.715H69.33L58.03,569.094z M47.398,509.923h-3.841
		c-3.562-2.931-7.061-6.113-10.493-9.546c-3.433-3.433-5.761-6.021-6.986-7.766v-0.946h7.904c0.964,1.781,2.792,4.417,5.483,7.904
		c2.69,3.488,5.334,6.644,7.932,9.463V509.923z M27.025,563.973h29.112L45.06,534.638c-0.928-2.301-2.042-5.491-3.34-9.574
		c-1.002,3.562-2.097,6.791-3.284,9.686L27.025,563.973z"/>
	<path d="M141.025,536.141c8.461,0,14.834,2.663,19.121,7.988s6.429,13.108,6.429,23.351c0,10.057-2.254,17.812-6.763,23.268
		s-10.846,8.183-19.009,8.183c-4.305,0-8.183-0.891-11.634-2.672s-6.179-4.305-8.183-7.57h-0.501l-1.559,9.129h-3.451v-86.613h5.511
		v21.765c0,3.266-0.075,6.271-0.223,9.018l-0.167,4.731h0.39c2.3-3.637,5.074-6.309,8.322-8.016
		C132.554,536.996,136.46,536.141,141.025,536.141z M140.914,541.151c-7.125,0-12.228,2.041-15.308,6.123
		c-3.081,4.083-4.62,10.818-4.62,20.206v0.946c0,9.129,1.604,15.679,4.815,19.649c3.209,3.972,8.21,5.956,15.001,5.956
		c6.605,0,11.578-2.311,14.918-6.93c3.34-4.621,5.01-11.197,5.01-19.733C160.73,549.89,154.124,541.151,140.914,541.151z"/>
	<path d="M182.55,520.5c0-3.562,1.169-5.344,3.507-5.344c1.15,0,2.05,0.465,2.7,1.392c0.649,0.928,0.974,2.246,0.974,3.952
		c0,1.67-0.325,2.987-0.974,3.952c-0.65,0.966-1.55,1.447-2.7,1.447C183.719,525.899,182.55,524.099,182.55,520.5z M188.84,597.817
		h-5.511V537.31h5.511V597.817z"/>
	<path d="M233.149,598.93c-9.315,0-16.393-2.718-21.236-8.154s-7.264-13.239-7.264-23.407c0-10.354,2.533-18.313,7.598-23.88
		s12.385-8.35,21.959-8.35c6.494,0,12.338,1.206,17.534,3.618l-3.952,10.521c-5.53-2.151-10.094-3.229-13.693-3.229
		c-10.651,0-15.976,7.069-15.976,21.208c0,6.902,1.326,12.089,3.98,15.558c2.653,3.471,6.541,5.205,11.662,5.205
		c5.826,0,11.336-1.447,16.532-4.342v11.411c-2.338,1.373-4.834,2.357-7.487,2.95C240.153,598.632,236.934,598.93,233.149,598.93z"
		/>
	<path d="M255.415,536.252h14.25l12.524,34.901c1.893,4.974,3.154,9.649,3.785,14.027h0.445c0.334-2.04,0.946-4.518,1.837-7.431
		s5.603-16.746,14.139-41.498h14.139L290.205,606c-4.787,12.803-12.766,19.204-23.936,19.204c-2.895,0-5.715-0.315-8.461-0.946
		v-10.354c1.966,0.445,4.211,0.668,6.735,0.668c6.308,0,10.743-3.655,13.304-10.966l2.282-5.789L255.415,536.252z"/>
	<path d="M350.711,598.93c-9.315,0-16.393-2.718-21.236-8.154s-7.264-13.239-7.264-23.407c0-10.354,2.533-18.313,7.598-23.88
		s12.385-8.35,21.959-8.35c6.494,0,12.338,1.206,17.534,3.618l-3.952,10.521c-5.529-2.151-10.094-3.229-13.693-3.229
		c-10.651,0-15.976,7.069-15.976,21.208c0,6.902,1.326,12.089,3.98,15.558c2.653,3.471,6.541,5.205,11.662,5.205
		c5.826,0,11.336-1.447,16.532-4.342v11.411c-2.338,1.373-4.834,2.357-7.487,2.95S354.497,598.93,350.711,598.93z"/>
	<path d="M395.41,597.817h-13.081v-86.613h13.081V597.817z"/>
	<path d="M440.999,598.93c-9.574,0-17.062-2.792-22.46-8.377c-5.4-5.585-8.1-13.276-8.1-23.073c0-10.056,2.505-17.96,7.515-23.713
		c5.01-5.752,11.893-8.628,20.651-8.628c8.127,0,14.547,2.469,19.26,7.403c4.712,4.936,7.069,11.727,7.069,20.373v7.069H423.91
		c0.186,5.976,1.8,10.567,4.843,13.777c3.042,3.21,7.328,4.814,12.858,4.814c3.637,0,7.022-0.343,10.158-1.029
		s6.504-1.828,10.104-3.424v10.632c-3.192,1.522-6.421,2.598-9.686,3.229C448.921,598.615,445.192,598.93,440.999,598.93z
		 M438.605,545.047c-4.156,0-7.486,1.317-9.992,3.952c-2.504,2.636-3.999,6.477-4.48,11.522h27.943
		c-0.075-5.084-1.3-8.934-3.674-11.551C446.027,546.356,442.76,545.047,438.605,545.047z"/>
	<path d="M496.551,594.032c3.487,0,6.531-0.297,9.129-0.891v4.453c-2.672,0.891-5.753,1.336-9.24,1.336
		c-5.344,0-9.287-1.428-11.829-4.286c-2.542-2.857-3.812-7.348-3.812-13.471v-39.076h-8.962v-3.229l8.962-2.505l2.783-13.693h2.839
		v14.64h17.757v4.787H486.42v38.297c0,4.64,0.815,8.071,2.449,10.298C490.502,592.918,493.063,594.032,496.551,594.032z"/>
	<path d="M534.737,594.032c3.487,0,6.531-0.297,9.129-0.891v4.453c-2.672,0.891-5.753,1.336-9.24,1.336
		c-5.344,0-9.287-1.428-11.829-4.286c-2.542-2.857-3.812-7.348-3.812-13.471v-39.076h-8.962v-3.229l8.962-2.505l2.783-13.693h2.839
		v14.64h17.757v4.787h-17.757v38.297c0,4.64,0.815,8.071,2.449,10.298C528.688,592.918,531.249,594.032,534.737,594.032z"/>
	<path d="M581.383,598.93c-8.795,0-15.651-2.708-20.567-8.127c-4.918-5.418-7.376-13.006-7.376-22.767
		c0-9.648,2.374-17.376,7.125-23.185c4.75-5.807,11.151-8.711,19.204-8.711c7.125,0,12.747,2.486,16.866,7.459
		c4.119,4.974,6.179,11.727,6.179,20.262v4.453h-43.585c0.074,8.313,2.013,14.659,5.817,19.037
		c3.803,4.379,9.248,6.568,16.337,6.568c3.451,0,6.485-0.241,9.101-0.724c2.617-0.481,5.929-1.521,9.937-3.117v5.01
		c-3.415,1.484-6.568,2.496-9.463,3.034C588.063,598.661,584.871,598.93,581.383,598.93z M579.769,541.04
		c-5.826,0-10.502,1.92-14.027,5.762c-3.526,3.84-5.586,9.379-6.179,16.615h37.406c0-7.014-1.522-12.496-4.564-16.449
		C589.362,543.016,585.149,541.04,579.769,541.04z"/>
</g>
<polygon fill="#231F20" points="251.238,262.868 432.806,178.164 432.806,169.177 233.315,239.177 243.32,262.868 "/>
<path fill="#231F20" d="M239.367,262.868"/>
<polygon fill="#231F20" points="316.32,227.747 270.748,316.797 284.32,225.342 310.616,235.167 "/>
</svg>
