<?xml version="1.0" encoding="utf-8"?>
<!-- Generator: Adobe Illustrator 14.0.0, SVG Export Plug-In . SVG Version: 6.00 Build 43363)  -->
<!DOCTYPE svg PUBLIC "-//W3C//DTD SVG 1.1//EN" "http://www.w3.org/Graphics/SVG/1.1/DTD/svg11.dtd">
<svg version="1.1" id="Calque_1" xmlns="http://www.w3.org/2000/svg" xmlns:xlink="http://www.w3.org/1999/xlink" x="0px" y="0px"
	 width="297.638px" height="419.527px" viewBox="148.822 211.181 297.638 419.527"
	 enable-background="new 148.822 211.181 297.638 419.527" xml:space="preserve">
<g>
	<path d="M297.641,299.945c-66.827,0-121,54.174-121,121c0,66.827,54.173,121,121,121c66.825,0,120.999-54.173,120.999-121
		C418.64,354.119,364.466,299.945,297.641,299.945z M297.642,526.891c-58.514,0-105.947-47.435-105.947-105.946
		S239.128,315,297.642,315c58.511,0,105.944,47.434,105.944,105.945S356.153,526.891,297.642,526.891z"/>
	<path d="M291.58,387.181c-1.102,7.564-0.158,17.173-0.473,25.523c7.788-0.745,15.468,1.744,20.324-2.836
		c3.926-3.701,4.467-14.502,0.473-18.906C308.03,386.69,300.056,387.642,291.58,387.181z"/>
	<path d="M297.641,330.158c-50.141,0-90.787,40.647-90.787,90.787c0,50.141,40.646,90.787,90.787,90.787
		c50.14,0,90.785-40.646,90.785-90.787C388.426,370.805,347.781,330.158,297.641,330.158z M328.447,429.721
		c-9.361,5.41-21.955,4.769-37.339,4.727c0,11.344,0,22.687,0,34.03c-8.98,0-17.961,0-26.941,0c0-33.716,0-67.433,0-101.148
		c-0.041-0.671-0.078-1.339,0.473-1.418c26.131,0.993,55.543-4.182,69.007,8.98C347.326,388.266,344.746,420.298,328.447,429.721z"
		/>
</g>
</svg>
