<?xml version="1.0" encoding="utf-8"?>
<!-- Generator: Adobe Illustrator 14.0.0, SVG Export Plug-In . SVG Version: 6.00 Build 43363)  -->
<!DOCTYPE svg PUBLIC "-//W3C//DTD SVG 1.1//EN" "http://www.w3.org/Graphics/SVG/1.1/DTD/svg11.dtd">
<svg version="1.1" id="Calque_1" xmlns="http://www.w3.org/2000/svg" xmlns:xlink="http://www.w3.org/1999/xlink" x="0px" y="0px"
	 width="595.28px" height="841.89px" viewBox="0 0 595.28 841.89" enable-background="new 0 0 595.28 841.89" xml:space="preserve">
<path fill-rule="evenodd" clip-rule="evenodd" d="M301.804,94.838c-141.385,0-256,114.615-256,256s114.615,256,256,256
	s256-114.615,256-256S443.188,94.838,301.804,94.838z M301.805,574.987c-123.795,0-224.15-100.355-224.15-224.149
	s100.355-224.149,224.15-224.149c123.794,0,224.149,100.355,224.149,224.149S425.599,574.987,301.805,574.987z"/>
<g>
	<path fill-rule="evenodd" clip-rule="evenodd" d="M288.983,279.404c-2.331,16.002-0.335,36.332-1,54
		c16.477-1.576,32.725,3.688,43-6c8.306-7.831,9.45-30.683,1-40C323.784,278.364,306.915,280.378,288.983,279.404z"/>
	<path fill-rule="evenodd" clip-rule="evenodd" d="M301.804,158.76c-106.082,0-192.078,85.997-192.078,192.078
		c0,106.082,85.996,192.078,192.078,192.078s192.078-85.996,192.078-192.078C493.882,244.756,407.886,158.76,301.804,158.76z
		 M366.983,369.404c-19.808,11.449-46.453,10.09-79,10c0,24,0,48,0,72c-19,0-38,0-57,0c0-71.334,0-142.668,0-214
		c-0.086-1.419-0.165-2.832,1-3c55.286,2.102,117.514-8.846,146,19C406.928,281.698,401.468,349.469,366.983,369.404z"/>
</g>
</svg>
