<?xml version="1.0" encoding="utf-8"?>
<!-- Generator: Adobe Illustrator 14.0.0, SVG Export Plug-In . SVG Version: 6.00 Build 43363)  -->
<!DOCTYPE svg PUBLIC "-//W3C//DTD SVG 1.1//EN" "http://www.w3.org/Graphics/SVG/1.1/DTD/svg11.dtd">
<svg version="1.1" id="Mode_Isolation" xmlns="http://www.w3.org/2000/svg" xmlns:xlink="http://www.w3.org/1999/xlink" x="0px"
	 y="0px" width="62.59px" height="51.498px" viewBox="0 0 62.59 51.498" enable-background="new 0 0 62.59 51.498"
	 xml:space="preserve">
<g>
	<path fill-rule="evenodd" clip-rule="evenodd" d="M44.4,6.452c0.564,3.239-3.314,4.412-5.731,4.147
		c-1.577-0.172-2.621-1.137-2.867-2.692c-0.426-2.697,1.295-5.646,4.188-5.648C42.131,2.258,44.042,4.4,44.4,6.452z"/>
	<path fill-rule="evenodd" clip-rule="evenodd" d="M38.7,17.928c0.37,0.266,0.814,0.441,1.355,0.489
		c1.901,0.167,3.861-0.093,5.724-0.353c0.967-0.135,2.112-0.28,3.044,0.095c1.516,0.609,0.985,1.741,0.285,2.889
		c-2.015,3.303-6.421,3.197-9.718,2.317c-1.912-0.511-3.763-1.322-5.427-2.395c-0.745-0.479-1.609-1.01-2.077-1.767
		c-0.408-0.659-0.957-2.654-2.135-1.815c-1.722,1.226,0.724,4.216,1.304,5.473c1.011,2.191,2.158,4.317,3.069,6.555
		c2.074,5.097,2.553,10.567-1.115,15.082c-6.794,1.128-3.027-8.307-4-13c-0.332-1.603-1.551-3.719-2.943-4.58
		c-1.808-1.118-3.947-1.59-5.729-2.782c-2.43-1.625,0.328-6.068,1.333-7.872c1.818-3.26,5.094-6.289,9.035-6.312
		c2.818-0.017,4.911,0.677,5.8,3.39C36.995,14.834,37.365,16.968,38.7,17.928z"/>
</g>
<g>
	<path d="M13.34,49.357c-6.844,0-12.413-5.568-12.413-12.413S6.496,24.531,13.34,24.531c6.845,0,12.413,5.568,12.413,12.413
		S20.185,49.357,13.34,49.357L13.34,49.357z M13.34,29.531c-4.087,0-7.413,3.325-7.413,7.413s3.325,7.413,7.413,7.413
		s7.413-3.325,7.413-7.413S17.428,29.531,13.34,29.531L13.34,29.531z"/>
</g>
<g>
	<path d="M50.009,49.357c-6.844,0-12.413-5.568-12.413-12.413s5.568-12.413,12.413-12.413c6.845,0,12.413,5.568,12.413,12.413
		S56.854,49.357,50.009,49.357L50.009,49.357z M50.009,29.531c-4.087,0-7.413,3.325-7.413,7.413s3.325,7.413,7.413,7.413
		s7.413-3.325,7.413-7.413S54.097,29.531,50.009,29.531L50.009,29.531z"/>
</g>
</svg>
