<?xml version="1.0" encoding="utf-8"?>
<!-- Generator: Adobe Illustrator 14.0.0, SVG Export Plug-In . SVG Version: 6.00 Build 43363)  -->
<!DOCTYPE svg PUBLIC "-//W3C//DTD SVG 1.1//EN" "http://www.w3.org/Graphics/SVG/1.1/DTD/svg11.dtd">
<svg version="1.1" id="Calque_1" xmlns="http://www.w3.org/2000/svg" xmlns:xlink="http://www.w3.org/1999/xlink" x="0px" y="0px"
	 width="297.64px" height="419.53px" viewBox="0 0 297.64 419.53" enable-background="new 0 0 297.64 419.53" xml:space="preserve">
<g>
	<path fill="#0C0C0C" d="M259,190.353h-88c-1.178,0-11.824-0.153-22.772-5.476c-15.536-7.552-24.091-21.892-24.091-40.378
		c0-13.429,4.143-24.32,12.312-32.373c12.909-12.724,30.707-13,33.102-12.976c13.15,0.03,32.648,8.945,32.648,33.432
		c0,5.799-4.701,10.5-10.5,10.5s-10.5-4.701-10.5-10.5c0-6.799-2.674-9.188-5.004-10.509c-2.965-1.68-6.279-1.897-6.772-1.921
		l-0.144,0.003l0.053-0.006c0.006,0.001-6.803,0.039-13.139,3.345c-7.44,3.881-11.057,10.752-11.057,21.005
		c0,10.592,3.899,17.421,12.272,21.491c6.621,3.218,13.525,3.362,13.592,3.362h88c5.799,0,10.5,4.701,10.5,10.5
		S264.799,190.353,259,190.353L259,190.353z"/>
</g>
<g>
	<path fill="#0C0C0C" d="M109,201.141H66.095c-15.258,0-37.959-9.906-37.959-37.196c0-13.52,5.473-21.752,10.063-26.276
		c10.441-10.29,24.774-10.531,26.811-10.538c10.963,0.026,27.215,7.443,27.215,27.815c0,5.799-4.701,10.5-10.5,10.5
		s-10.5-4.701-10.5-10.5c0-1.959,0-6.531-6.341-6.813l-0.295,0.011l0.208-0.014c-0.118,0.004-4.677,0.094-8.814,2.297
		c-2.939,1.566-6.847,4.671-6.847,13.519c0,14.755,13.047,16.128,17.045,16.197L109,180.141c5.799,0,10.5,4.701,10.5,10.5
		S114.799,201.141,109,201.141L109,201.141z"/>
</g>
<g>
	<path fill="#0C0C0C" d="M138.099,322.197c-2.741,0-26.242-0.489-42.774-16.784c-10.5-10.35-15.825-24.445-15.825-41.896
		c0-30.679,16.883-45.326,31.045-52.211c14.575-7.085,29.115-7.166,29.727-7.166H259c5.799,0,10.5,4.701,10.5,10.5
		s-4.701,10.5-10.5,10.5H140.272c-0.062,0.001-10.833,0.154-21.085,5.32c-12.574,6.335-18.687,17.147-18.687,33.057
		c0,11.556,3.183,20.584,9.461,26.835c10.836,10.789,27.928,10.822,28.116,10.846l0.141-0.003c0.523-0.02,5.959-0.282,10.997-3.057
		c6.133-3.378,9.055-8.981,9.17-17.607c-0.496-3.968-2.979-13.857-9.395-17.554c-6.083-3.505-15.138-0.721-21.663,2.229
		c-5.283,2.393-11.503,0.044-13.894-5.238c-2.39-5.284-0.045-11.505,5.239-13.895c16.08-7.274,29.859-7.678,40.958-1.202
		c17.076,9.966,19.496,31.734,19.716,34.184l0.042,0.938c0,30.938-24.605,42.184-41.171,42.203
		C138.184,322.197,138.144,322.197,138.099,322.197L138.099,322.197z"/>
</g>
<g>
	<path fill="#0C0C0C" d="M206,278.141c-2.688,0-5.375-1.025-7.425-3.075c-6.509-6.51-6.376-13.23-5.717-16.658
		c2.109-10.968,14.036-16.868,17.641-18.415l1.983-0.852H259c5.799,0,10.5,4.701,10.5,10.5s-4.701,10.5-10.5,10.5h-41.885
		c-0.87,0.497-1.729,1.065-2.427,1.601c2.781,4.087,2.36,9.7-1.264,13.324C211.375,277.115,208.688,278.141,206,278.141L206,278.141
		z"/>
</g>
</svg>
